<svg aria-roledescription="er" role="graphics-document document" viewBox="0 0 1458.6546630859375 708" style="max-width: 100%;" xmlns="http://www.w3.org/2000/svg" width="100%" id="graph-div" height="100%" xmlns:xlink="http://www.w3.org/1999/xlink"><style>@import url("https://cdnjs.cloudflare.com/ajax/libs/font-awesome/6.5.2/css/all.min.css");'</style><style>#graph-div{font-family:"trebuchet ms",verdana,arial,sans-serif;font-size:16px;fill:#333;}#graph-div .error-icon{fill:#552222;}#graph-div .error-text{fill:#552222;stroke:#552222;}#graph-div .edge-thickness-normal{stroke-width:2px;}#graph-div .edge-thickness-thick{stroke-width:3.5px;}#graph-div .edge-pattern-solid{stroke-dasharray:0;}#graph-div .edge-pattern-dashed{stroke-dasharray:3;}#graph-div .edge-pattern-dotted{stroke-dasharray:2;}#graph-div .marker{fill:#333333;stroke:#333333;}#graph-div .marker.cross{stroke:#333333;}#graph-div svg{font-family:"trebuchet ms",verdana,arial,sans-serif;font-size:16px;}#graph-div .entityBox{fill:#ECECFF;stroke:#9370DB;}#graph-div .attributeBoxOdd{fill:#ffffff;stroke:#9370DB;}#graph-div .attributeBoxEven{fill:#f2f2f2;stroke:#9370DB;}#graph-div .relationshipLabelBox{fill:hsl(80, 100%, 96.2745098039%);opacity:0.7;background-color:hsl(80, 100%, 96.2745098039%);}#graph-div .relationshipLabelBox rect{opacity:0.5;}#graph-div .relationshipLine{stroke:#333333;}#graph-div .entityTitleText{text-anchor:middle;font-size:18px;fill:#333;}#graph-div #MD_PARENT_START{fill:#f5f5f5!important;stroke:#333333!important;stroke-width:1;}#graph-div #MD_PARENT_END{fill:#f5f5f5!important;stroke:#333333!important;stroke-width:1;}#graph-div :root{--mermaid-font-family:"trebuchet ms",verdana,arial,sans-serif;}</style><g></g><defs><marker orient="auto" markerHeight="240" markerWidth="190" refY="7" refX="0" id="MD_PARENT_START"><path d="M 18,7 L9,13 L1,7 L9,1 Z"></path></marker></defs><defs><marker orient="auto" markerHeight="28" markerWidth="20" refY="7" refX="19" id="MD_PARENT_END"><path d="M 18,7 L9,13 L1,7 L9,1 Z"></path></marker></defs><defs><marker orient="auto" markerHeight="18" markerWidth="18" refY="9" refX="0" id="ONLY_ONE_START"><path d="M9,0 L9,18 M15,0 L15,18" fill="none" stroke="gray"></path></marker></defs><defs><marker orient="auto" markerHeight="18" markerWidth="18" refY="9" refX="18" id="ONLY_ONE_END"><path d="M3,0 L3,18 M9,0 L9,18" fill="none" stroke="gray"></path></marker></defs><defs><marker orient="auto" markerHeight="18" markerWidth="30" refY="9" refX="0" id="ZERO_OR_ONE_START"><circle r="6" cy="9" cx="21" fill="white" stroke="gray"></circle><path d="M9,0 L9,18" fill="none" stroke="gray"></path></marker></defs><defs><marker orient="auto" markerHeight="18" markerWidth="30" refY="9" refX="30" id="ZERO_OR_ONE_END"><circle r="6" cy="9" cx="9" fill="white" stroke="gray"></circle><path d="M21,0 L21,18" fill="none" stroke="gray"></path></marker></defs><defs><marker orient="auto" markerHeight="36" markerWidth="45" refY="18" refX="18" id="ONE_OR_MORE_START"><path d="M0,18 Q 18,0 36,18 Q 18,36 0,18 M42,9 L42,27" fill="none" stroke="gray"></path></marker></defs><defs><marker orient="auto" markerHeight="36" markerWidth="45" refY="18" refX="27" id="ONE_OR_MORE_END"><path d="M3,9 L3,27 M9,18 Q27,0 45,18 Q27,36 9,18" fill="none" stroke="gray"></path></marker></defs><defs><marker orient="auto" markerHeight="36" markerWidth="57" refY="18" refX="18" id="ZERO_OR_MORE_START"><circle r="6" cy="18" cx="48" fill="white" stroke="gray"></circle><path d="M0,18 Q18,0 36,18 Q18,36 0,18" fill="none" stroke="gray"></path></marker></defs><defs><marker orient="auto" markerHeight="36" markerWidth="57" refY="18" refX="39" id="ZERO_OR_MORE_END"><circle r="6" cy="18" cx="9" fill="white" stroke="gray"></circle><path d="M21,18 Q39,0 57,18 Q39,36 21,18" fill="none" stroke="gray"></path></marker></defs><path style="stroke: gray; fill: none;" marker-start="url(#ONLY_ONE_START)" marker-end="url(#ZERO_OR_MORE_END)" d="M475.785,154L460.835,162.333C445.885,170.667,415.986,187.333,401.037,204C386.087,220.667,386.087,237.333,386.087,245.667L386.087,254" class="er relationshipLine"></path><path style="stroke: gray; fill: none;" marker-start="url(#ONLY_ONE_START)" marker-end="url(#ZERO_OR_MORE_END)" d="M716.175,154L731.125,162.333C746.074,170.667,775.974,187.333,790.923,209.5C805.873,231.667,805.873,259.333,805.873,273.167L805.873,287" class="er relationshipLine"></path><path style="stroke: gray; fill: none;" marker-start="url(#ONLY_ONE_START)" marker-end="url(#ZERO_OR_MORE_END)" d="M278.091,410L266.552,418.333C255.014,426.667,231.938,443.333,220.4,460C208.862,476.667,208.862,493.333,208.862,501.667L208.862,510" class="er relationshipLine"></path><path style="stroke: gray; fill: none;" marker-start="url(#ONLY_ONE_START)" marker-end="url(#ZERO_OR_MORE_END)" d="M494.083,410L505.621,418.333C517.159,426.667,540.235,443.333,551.774,467.333C563.312,491.333,563.312,522.667,563.312,538.333L563.312,554" class="er relationshipLine"></path><path style="stroke: gray; fill: none;" marker-start="url(#ONLY_ONE_START)" marker-end="url(#ZERO_OR_MORE_END)" d="M1234.806,154L1234.806,162.333C1234.806,170.667,1234.806,187.333,1234.806,207.667C1234.806,228,1234.806,252,1234.806,264L1234.806,276" class="er relationshipLine"></path><g transform="translate(372.24720001220703,20 )" id="entity-Companies-1dbedc8e-3282-5ce8-ad22-dafe2961ef0d"><rect height="134" width="447.4654998779297" y="0" x="0" class="er entityBox"></rect><text transform="translate(223.73274993896484,12)" style="dominant-baseline: middle; text-anchor: middle; font-size: 12px;" y="0" x="0" id="text-entity-Companies-1dbedc8e-3282-5ce8-ad22-dafe2961ef0d" class="er entityLabel">Companies</text><rect height="22" width="36.61909484863281" y="24" x="0" class="er attributeBoxOdd"></rect><text transform="translate(5,35)" style="dominant-baseline: middle; font-size: 10.2px;" y="0" x="0" id="text-entity-Companies-1dbedc8e-3282-5ce8-ad22-dafe2961ef0d-attr-1-type" class="er entityLabel">string</text><rect height="22" width="83.02810668945312" y="24" x="36.61909484863281" class="er attributeBoxOdd"></rect><text transform="translate(41.61909484863281,35)" style="dominant-baseline: middle; font-size: 10.2px;" y="0" x="0" id="text-entity-Companies-1dbedc8e-3282-5ce8-ad22-dafe2961ef0d-attr-1-name" class="er entityLabel">_id</text><rect height="22" width="22.68768310546875" y="24" x="119.64720153808594" class="er attributeBoxOdd"></rect><text transform="translate(124.64720153808594,35)" style="dominant-baseline: middle; font-size: 10.2px;" y="0" x="0" id="text-entity-Companies-1dbedc8e-3282-5ce8-ad22-dafe2961ef0d-attr-1-key" class="er entityLabel">PK</text><rect height="22" width="305.130615234375" y="24" x="142.3348846435547" class="er attributeBoxOdd"></rect><text transform="translate(147.3348846435547,35)" style="dominant-baseline: middle; font-size: 10.2px;" y="0" x="0" id="text-entity-Companies-1dbedc8e-3282-5ce8-ad22-dafe2961ef0d-attr-1-comment" class="er entityLabel">MongoDB ObjectId</text><rect height="22" width="36.61909484863281" y="46" x="0" class="er attributeBoxEven"></rect><text transform="translate(5,57)" style="dominant-baseline: middle; font-size: 10.2px;" y="0" x="0" id="text-entity-Companies-1dbedc8e-3282-5ce8-ad22-dafe2961ef0d-attr-2-type" class="er entityLabel">string</text><rect height="22" width="83.02810668945312" y="46" x="36.61909484863281" class="er attributeBoxEven"></rect><text transform="translate(41.61909484863281,57)" style="dominant-baseline: middle; font-size: 10.2px;" y="0" x="0" id="text-entity-Companies-1dbedc8e-3282-5ce8-ad22-dafe2961ef0d-attr-2-name" class="er entityLabel">name</text><rect height="22" width="22.68768310546875" y="46" x="119.64720153808594" class="er attributeBoxEven"></rect><text transform="translate(124.64720153808594,57)" style="dominant-baseline: middle; font-size: 10.2px;" y="0" x="0" id="text-entity-Companies-1dbedc8e-3282-5ce8-ad22-dafe2961ef0d-attr-2-key" class="er entityLabel"></text><rect height="22" width="305.130615234375" y="46" x="142.3348846435547" class="er attributeBoxEven"></rect><text transform="translate(147.3348846435547,57)" style="dominant-baseline: middle; font-size: 10.2px;" y="0" x="0" id="text-entity-Companies-1dbedc8e-3282-5ce8-ad22-dafe2961ef0d-attr-2-comment" class="er entityLabel">Name des Unternehmens</text><rect height="22" width="36.61909484863281" y="68" x="0" class="er attributeBoxOdd"></rect><text transform="translate(5,79)" style="dominant-baseline: middle; font-size: 10.2px;" y="0" x="0" id="text-entity-Companies-1dbedc8e-3282-5ce8-ad22-dafe2961ef0d-attr-3-type" class="er entityLabel">string</text><rect height="22" width="83.02810668945312" y="68" x="36.61909484863281" class="er attributeBoxOdd"></rect><text transform="translate(41.61909484863281,79)" style="dominant-baseline: middle; font-size: 10.2px;" y="0" x="0" id="text-entity-Companies-1dbedc8e-3282-5ce8-ad22-dafe2961ef0d-attr-3-name" class="er entityLabel">website</text><rect height="22" width="22.68768310546875" y="68" x="119.64720153808594" class="er attributeBoxOdd"></rect><text transform="translate(124.64720153808594,79)" style="dominant-baseline: middle; font-size: 10.2px;" y="0" x="0" id="text-entity-Companies-1dbedc8e-3282-5ce8-ad22-dafe2961ef0d-attr-3-key" class="er entityLabel"></text><rect height="22" width="305.130615234375" y="68" x="142.3348846435547" class="er attributeBoxOdd"></rect><text transform="translate(147.3348846435547,79)" style="dominant-baseline: middle; font-size: 10.2px;" y="0" x="0" id="text-entity-Companies-1dbedc8e-3282-5ce8-ad22-dafe2961ef0d-attr-3-comment" class="er entityLabel">Webseite des Unternehmens</text><rect height="22" width="36.61909484863281" y="90" x="0" class="er attributeBoxEven"></rect><text transform="translate(5,101)" style="dominant-baseline: middle; font-size: 10.2px;" y="0" x="0" id="text-entity-Companies-1dbedc8e-3282-5ce8-ad22-dafe2961ef0d-attr-4-type" class="er entityLabel">date</text><rect height="22" width="83.02810668945312" y="90" x="36.61909484863281" class="er attributeBoxEven"></rect><text transform="translate(41.61909484863281,101)" style="dominant-baseline: middle; font-size: 10.2px;" y="0" x="0" id="text-entity-Companies-1dbedc8e-3282-5ce8-ad22-dafe2961ef0d-attr-4-name" class="er entityLabel">last_scraped_at</text><rect height="22" width="22.68768310546875" y="90" x="119.64720153808594" class="er attributeBoxEven"></rect><text transform="translate(124.64720153808594,101)" style="dominant-baseline: middle; font-size: 10.2px;" y="0" x="0" id="text-entity-Companies-1dbedc8e-3282-5ce8-ad22-dafe2961ef0d-attr-4-key" class="er entityLabel"></text><rect height="22" width="305.130615234375" y="90" x="142.3348846435547" class="er attributeBoxEven"></rect><text transform="translate(147.3348846435547,101)" style="dominant-baseline: middle; font-size: 10.2px;" y="0" x="0" id="text-entity-Companies-1dbedc8e-3282-5ce8-ad22-dafe2961ef0d-attr-4-comment" class="er entityLabel">Datum und Uhrzeit, wann die Webseite zuletzt gescraped wurde</text><rect height="22" width="36.61909484863281" y="112" x="0" class="er attributeBoxOdd"></rect><text transform="translate(5,123)" style="dominant-baseline: middle; font-size: 10.2px;" y="0" x="0" id="text-entity-Companies-1dbedc8e-3282-5ce8-ad22-dafe2961ef0d-attr-5-type" class="er entityLabel">string</text><rect height="22" width="83.02810668945312" y="112" x="36.61909484863281" class="er attributeBoxOdd"></rect><text transform="translate(41.61909484863281,123)" style="dominant-baseline: middle; font-size: 10.2px;" y="0" x="0" id="text-entity-Companies-1dbedc8e-3282-5ce8-ad22-dafe2961ef0d-attr-5-name" class="er entityLabel">status</text><rect height="22" width="22.68768310546875" y="112" x="119.64720153808594" class="er attributeBoxOdd"></rect><text transform="translate(124.64720153808594,123)" style="dominant-baseline: middle; font-size: 10.2px;" y="0" x="0" id="text-entity-Companies-1dbedc8e-3282-5ce8-ad22-dafe2961ef0d-attr-5-key" class="er entityLabel"></text><rect height="22" width="305.130615234375" y="112" x="142.3348846435547" class="er attributeBoxOdd"></rect><text transform="translate(147.3348846435547,123)" style="dominant-baseline: middle; font-size: 10.2px;" y="0" x="0" id="text-entity-Companies-1dbedc8e-3282-5ce8-ad22-dafe2961ef0d-attr-5-comment" class="er entityLabel">Status der Webseite, z.B. 'aktiv', 'inaktiv' etc.</text></g><g transform="translate(188.86758422851562,254 )" id="entity-Apartments-07b0c0e3-c491-5248-a4ad-fc45d3b72c6f"><rect height="156" width="394.4385681152344" y="0" x="0" class="er entityBox"></rect><text transform="translate(197.2192840576172,12)" style="dominant-baseline: middle; text-anchor: middle; font-size: 12px;" y="0" x="0" id="text-entity-Apartments-07b0c0e3-c491-5248-a4ad-fc45d3b72c6f" class="er entityLabel">Apartments</text><rect height="22" width="36.61909484863281" y="24" x="0" class="er attributeBoxOdd"></rect><text transform="translate(5,35)" style="dominant-baseline: middle; font-size: 10.2px;" y="0" x="0" id="text-entity-Apartments-07b0c0e3-c491-5248-a4ad-fc45d3b72c6f-attr-1-type" class="er entityLabel">string</text><rect height="22" width="61.13899230957031" y="24" x="36.61909484863281" class="er attributeBoxOdd"></rect><text transform="translate(41.61909484863281,35)" style="dominant-baseline: middle; font-size: 10.2px;" y="0" x="0" id="text-entity-Apartments-07b0c0e3-c491-5248-a4ad-fc45d3b72c6f-attr-1-name" class="er entityLabel">_id</text><rect height="22" width="22.68768310546875" y="24" x="97.75808715820312" class="er attributeBoxOdd"></rect><text transform="translate(102.75808715820312,35)" style="dominant-baseline: middle; font-size: 10.2px;" y="0" x="0" id="text-entity-Apartments-07b0c0e3-c491-5248-a4ad-fc45d3b72c6f-attr-1-key" class="er entityLabel">PK</text><rect height="22" width="273.9927978515625" y="24" x="120.44577026367188" class="er attributeBoxOdd"></rect><text transform="translate(125.44577026367188,35)" style="dominant-baseline: middle; font-size: 10.2px;" y="0" x="0" id="text-entity-Apartments-07b0c0e3-c491-5248-a4ad-fc45d3b72c6f-attr-1-comment" class="er entityLabel">MongoDB ObjectId</text><rect height="22" width="36.61909484863281" y="46" x="0" class="er attributeBoxEven"></rect><text transform="translate(5,57)" style="dominant-baseline: middle; font-size: 10.2px;" y="0" x="0" id="text-entity-Apartments-07b0c0e3-c491-5248-a4ad-fc45d3b72c6f-attr-2-type" class="er entityLabel">string</text><rect height="22" width="61.13899230957031" y="46" x="36.61909484863281" class="er attributeBoxEven"></rect><text transform="translate(41.61909484863281,57)" style="dominant-baseline: middle; font-size: 10.2px;" y="0" x="0" id="text-entity-Apartments-07b0c0e3-c491-5248-a4ad-fc45d3b72c6f-attr-2-name" class="er entityLabel">company</text><rect height="22" width="22.68768310546875" y="46" x="97.75808715820312" class="er attributeBoxEven"></rect><text transform="translate(102.75808715820312,57)" style="dominant-baseline: middle; font-size: 10.2px;" y="0" x="0" id="text-entity-Apartments-07b0c0e3-c491-5248-a4ad-fc45d3b72c6f-attr-2-key" class="er entityLabel">FK</text><rect height="22" width="273.9927978515625" y="46" x="120.44577026367188" class="er attributeBoxEven"></rect><text transform="translate(125.44577026367188,57)" style="dominant-baseline: middle; font-size: 10.2px;" y="0" x="0" id="text-entity-Apartments-07b0c0e3-c491-5248-a4ad-fc45d3b72c6f-attr-2-comment" class="er entityLabel">Referenz auf das Immobilienunternehmen</text><rect height="22" width="36.61909484863281" y="68" x="0" class="er attributeBoxOdd"></rect><text transform="translate(5,79)" style="dominant-baseline: middle; font-size: 10.2px;" y="0" x="0" id="text-entity-Apartments-07b0c0e3-c491-5248-a4ad-fc45d3b72c6f-attr-3-type" class="er entityLabel">string</text><rect height="22" width="61.13899230957031" y="68" x="36.61909484863281" class="er attributeBoxOdd"></rect><text transform="translate(41.61909484863281,79)" style="dominant-baseline: middle; font-size: 10.2px;" y="0" x="0" id="text-entity-Apartments-07b0c0e3-c491-5248-a4ad-fc45d3b72c6f-attr-3-name" class="er entityLabel">url</text><rect height="22" width="22.68768310546875" y="68" x="97.75808715820312" class="er attributeBoxOdd"></rect><text transform="translate(102.75808715820312,79)" style="dominant-baseline: middle; font-size: 10.2px;" y="0" x="0" id="text-entity-Apartments-07b0c0e3-c491-5248-a4ad-fc45d3b72c6f-attr-3-key" class="er entityLabel"></text><rect height="22" width="273.9927978515625" y="68" x="120.44577026367188" class="er attributeBoxOdd"></rect><text transform="translate(125.44577026367188,79)" style="dominant-baseline: middle; font-size: 10.2px;" y="0" x="0" id="text-entity-Apartments-07b0c0e3-c491-5248-a4ad-fc45d3b72c6f-attr-3-comment" class="er entityLabel">URL der Webseite, von der die Wohnung gescraped wurde</text><rect height="22" width="36.61909484863281" y="90" x="0" class="er attributeBoxEven"></rect><text transform="translate(5,101)" style="dominant-baseline: middle; font-size: 10.2px;" y="0" x="0" id="text-entity-Apartments-07b0c0e3-c491-5248-a4ad-fc45d3b72c6f-attr-4-type" class="er entityLabel">string</text><rect height="22" width="61.13899230957031" y="90" x="36.61909484863281" class="er attributeBoxEven"></rect><text transform="translate(41.61909484863281,101)" style="dominant-baseline: middle; font-size: 10.2px;" y="0" x="0" id="text-entity-Apartments-07b0c0e3-c491-5248-a4ad-fc45d3b72c6f-attr-4-name" class="er entityLabel">hash</text><rect height="22" width="22.68768310546875" y="90" x="97.75808715820312" class="er attributeBoxEven"></rect><text transform="translate(102.75808715820312,101)" style="dominant-baseline: middle; font-size: 10.2px;" y="0" x="0" id="text-entity-Apartments-07b0c0e3-c491-5248-a4ad-fc45d3b72c6f-attr-4-key" class="er entityLabel"></text><rect height="22" width="273.9927978515625" y="90" x="120.44577026367188" class="er attributeBoxEven"></rect><text transform="translate(125.44577026367188,101)" style="dominant-baseline: middle; font-size: 10.2px;" y="0" x="0" id="text-entity-Apartments-07b0c0e3-c491-5248-a4ad-fc45d3b72c6f-attr-4-comment" class="er entityLabel">Hash des HTML-Inhalts</text><rect height="22" width="36.61909484863281" y="112" x="0" class="er attributeBoxOdd"></rect><text transform="translate(5,123)" style="dominant-baseline: middle; font-size: 10.2px;" y="0" x="0" id="text-entity-Apartments-07b0c0e3-c491-5248-a4ad-fc45d3b72c6f-attr-5-type" class="er entityLabel">date</text><rect height="22" width="61.13899230957031" y="112" x="36.61909484863281" class="er attributeBoxOdd"></rect><text transform="translate(41.61909484863281,123)" style="dominant-baseline: middle; font-size: 10.2px;" y="0" x="0" id="text-entity-Apartments-07b0c0e3-c491-5248-a4ad-fc45d3b72c6f-attr-5-name" class="er entityLabel">scraped_at</text><rect height="22" width="22.68768310546875" y="112" x="97.75808715820312" class="er attributeBoxOdd"></rect><text transform="translate(102.75808715820312,123)" style="dominant-baseline: middle; font-size: 10.2px;" y="0" x="0" id="text-entity-Apartments-07b0c0e3-c491-5248-a4ad-fc45d3b72c6f-attr-5-key" class="er entityLabel"></text><rect height="22" width="273.9927978515625" y="112" x="120.44577026367188" class="er attributeBoxOdd"></rect><text transform="translate(125.44577026367188,123)" style="dominant-baseline: middle; font-size: 10.2px;" y="0" x="0" id="text-entity-Apartments-07b0c0e3-c491-5248-a4ad-fc45d3b72c6f-attr-5-comment" class="er entityLabel">Datum und Uhrzeit, wann die Wohnung gescraped wurde</text><rect height="22" width="36.61909484863281" y="134" x="0" class="er attributeBoxEven"></rect><text transform="translate(5,145)" style="dominant-baseline: middle; font-size: 10.2px;" y="0" x="0" id="text-entity-Apartments-07b0c0e3-c491-5248-a4ad-fc45d3b72c6f-attr-6-type" class="er entityLabel">string</text><rect height="22" width="61.13899230957031" y="134" x="36.61909484863281" class="er attributeBoxEven"></rect><text transform="translate(41.61909484863281,145)" style="dominant-baseline: middle; font-size: 10.2px;" y="0" x="0" id="text-entity-Apartments-07b0c0e3-c491-5248-a4ad-fc45d3b72c6f-attr-6-name" class="er entityLabel">status</text><rect height="22" width="22.68768310546875" y="134" x="97.75808715820312" class="er attributeBoxEven"></rect><text transform="translate(102.75808715820312,145)" style="dominant-baseline: middle; font-size: 10.2px;" y="0" x="0" id="text-entity-Apartments-07b0c0e3-c491-5248-a4ad-fc45d3b72c6f-attr-6-key" class="er entityLabel"></text><rect height="22" width="273.9927978515625" y="134" x="120.44577026367188" class="er attributeBoxEven"></rect><text transform="translate(125.44577026367188,145)" style="dominant-baseline: middle; font-size: 10.2px;" y="0" x="0" id="text-entity-Apartments-07b0c0e3-c491-5248-a4ad-fc45d3b72c6f-attr-6-comment" class="er entityLabel">Status der Wohnung, z.B. 'frei', 'vermietet' etc.</text></g><g transform="translate(683.30615234375,287 )" id="entity-Contact-a4626517-d92a-5eaf-904d-ed1fdd3a62ce"><rect height="90" width="245.13372802734375" y="0" x="0" class="er entityBox"></rect><text transform="translate(122.56686401367188,12)" style="dominant-baseline: middle; text-anchor: middle; font-size: 12px;" y="0" x="0" id="text-entity-Contact-a4626517-d92a-5eaf-904d-ed1fdd3a62ce" class="er entityLabel">Contact</text><rect height="22" width="36.61909484863281" y="24" x="0" class="er attributeBoxOdd"></rect><text transform="translate(5,35)" style="dominant-baseline: middle; font-size: 10.2px;" y="0" x="0" id="text-entity-Contact-a4626517-d92a-5eaf-904d-ed1fdd3a62ce-attr-1-type" class="er entityLabel">string</text><rect height="22" width="45.38081359863281" y="24" x="36.61909484863281" class="er attributeBoxOdd"></rect><text transform="translate(41.61909484863281,35)" style="dominant-baseline: middle; font-size: 10.2px;" y="0" x="0" id="text-entity-Contact-a4626517-d92a-5eaf-904d-ed1fdd3a62ce-attr-1-name" class="er entityLabel">phone</text><rect height="22" width="163.13381958007812" y="24" x="81.99990844726562" class="er attributeBoxOdd"></rect><text transform="translate(86.99990844726562,35)" style="dominant-baseline: middle; font-size: 10.2px;" y="0" x="0" id="text-entity-Contact-a4626517-d92a-5eaf-904d-ed1fdd3a62ce-attr-1-comment" class="er entityLabel">Telefonnummer (falls vorhanden)</text><rect height="22" width="36.61909484863281" y="46" x="0" class="er attributeBoxEven"></rect><text transform="translate(5,57)" style="dominant-baseline: middle; font-size: 10.2px;" y="0" x="0" id="text-entity-Contact-a4626517-d92a-5eaf-904d-ed1fdd3a62ce-attr-2-type" class="er entityLabel">string</text><rect height="22" width="45.38081359863281" y="46" x="36.61909484863281" class="er attributeBoxEven"></rect><text transform="translate(41.61909484863281,57)" style="dominant-baseline: middle; font-size: 10.2px;" y="0" x="0" id="text-entity-Contact-a4626517-d92a-5eaf-904d-ed1fdd3a62ce-attr-2-name" class="er entityLabel">email</text><rect height="22" width="163.13381958007812" y="46" x="81.99990844726562" class="er attributeBoxEven"></rect><text transform="translate(86.99990844726562,57)" style="dominant-baseline: middle; font-size: 10.2px;" y="0" x="0" id="text-entity-Contact-a4626517-d92a-5eaf-904d-ed1fdd3a62ce-attr-2-comment" class="er entityLabel">E-Mail Adresse (falls vorhanden)</text><rect height="22" width="36.61909484863281" y="68" x="0" class="er attributeBoxOdd"></rect><text transform="translate(5,79)" style="dominant-baseline: middle; font-size: 10.2px;" y="0" x="0" id="text-entity-Contact-a4626517-d92a-5eaf-904d-ed1fdd3a62ce-attr-3-type" class="er entityLabel">string</text><rect height="22" width="45.38081359863281" y="68" x="36.61909484863281" class="er attributeBoxOdd"></rect><text transform="translate(41.61909484863281,79)" style="dominant-baseline: middle; font-size: 10.2px;" y="0" x="0" id="text-entity-Contact-a4626517-d92a-5eaf-904d-ed1fdd3a62ce-attr-3-name" class="er entityLabel">address</text><rect height="22" width="163.13381958007812" y="68" x="81.99990844726562" class="er attributeBoxOdd"></rect><text transform="translate(86.99990844726562,79)" style="dominant-baseline: middle; font-size: 10.2px;" y="0" x="0" id="text-entity-Contact-a4626517-d92a-5eaf-904d-ed1fdd3a62ce-attr-3-comment" class="er entityLabel">Büroadresse (falls vorhanden)</text></g><g transform="translate(20,510 )" id="entity-Details-45cac3b0-6e22-5f3e-a583-b50b72bdfd6b"><rect height="178" width="377.7242431640625" y="0" x="0" class="er entityBox"></rect><text transform="translate(188.86212158203125,12)" style="dominant-baseline: middle; text-anchor: middle; font-size: 12px;" y="0" x="0" id="text-entity-Details-45cac3b0-6e22-5f3e-a583-b50b72bdfd6b" class="er entityLabel">Details</text><rect height="22" width="36.61909484863281" y="24" x="0" class="er attributeBoxOdd"></rect><text transform="translate(5,35)" style="dominant-baseline: middle; font-size: 10.2px;" y="0" x="0" id="text-entity-Details-45cac3b0-6e22-5f3e-a583-b50b72bdfd6b-attr-1-type" class="er entityLabel">string</text><rect height="22" width="75.03517150878906" y="24" x="36.61909484863281" class="er attributeBoxOdd"></rect><text transform="translate(41.61909484863281,35)" style="dominant-baseline: middle; font-size: 10.2px;" y="0" x="0" id="text-entity-Details-45cac3b0-6e22-5f3e-a583-b50b72bdfd6b-attr-1-name" class="er entityLabel">address</text><rect height="22" width="266.0699768066406" y="24" x="111.65426635742188" class="er attributeBoxOdd"></rect><text transform="translate(116.65426635742188,35)" style="dominant-baseline: middle; font-size: 10.2px;" y="0" x="0" id="text-entity-Details-45cac3b0-6e22-5f3e-a583-b50b72bdfd6b-attr-1-comment" class="er entityLabel">Adresse der Wohnung</text><rect height="22" width="36.61909484863281" y="46" x="0" class="er attributeBoxEven"></rect><text transform="translate(5,57)" style="dominant-baseline: middle; font-size: 10.2px;" y="0" x="0" id="text-entity-Details-45cac3b0-6e22-5f3e-a583-b50b72bdfd6b-attr-2-type" class="er entityLabel">int</text><rect height="22" width="75.03517150878906" y="46" x="36.61909484863281" class="er attributeBoxEven"></rect><text transform="translate(41.61909484863281,57)" style="dominant-baseline: middle; font-size: 10.2px;" y="0" x="0" id="text-entity-Details-45cac3b0-6e22-5f3e-a583-b50b72bdfd6b-attr-2-name" class="er entityLabel">rooms</text><rect height="22" width="266.0699768066406" y="46" x="111.65426635742188" class="er attributeBoxEven"></rect><text transform="translate(116.65426635742188,57)" style="dominant-baseline: middle; font-size: 10.2px;" y="0" x="0" id="text-entity-Details-45cac3b0-6e22-5f3e-a583-b50b72bdfd6b-attr-2-comment" class="er entityLabel">Anzahl der Zimmer</text><rect height="22" width="36.61909484863281" y="68" x="0" class="er attributeBoxOdd"></rect><text transform="translate(5,79)" style="dominant-baseline: middle; font-size: 10.2px;" y="0" x="0" id="text-entity-Details-45cac3b0-6e22-5f3e-a583-b50b72bdfd6b-attr-3-type" class="er entityLabel">date</text><rect height="22" width="75.03517150878906" y="68" x="36.61909484863281" class="er attributeBoxOdd"></rect><text transform="translate(41.61909484863281,79)" style="dominant-baseline: middle; font-size: 10.2px;" y="0" x="0" id="text-entity-Details-45cac3b0-6e22-5f3e-a583-b50b72bdfd6b-attr-3-name" class="er entityLabel">availableFrom</text><rect height="22" width="266.0699768066406" y="68" x="111.65426635742188" class="er attributeBoxOdd"></rect><text transform="translate(116.65426635742188,79)" style="dominant-baseline: middle; font-size: 10.2px;" y="0" x="0" id="text-entity-Details-45cac3b0-6e22-5f3e-a583-b50b72bdfd6b-attr-3-comment" class="er entityLabel">Verfügbar ab (falls vorhanden)</text><rect height="22" width="36.61909484863281" y="90" x="0" class="er attributeBoxEven"></rect><text transform="translate(5,101)" style="dominant-baseline: middle; font-size: 10.2px;" y="0" x="0" id="text-entity-Details-45cac3b0-6e22-5f3e-a583-b50b72bdfd6b-attr-4-type" class="er entityLabel">float</text><rect height="22" width="75.03517150878906" y="90" x="36.61909484863281" class="er attributeBoxEven"></rect><text transform="translate(41.61909484863281,101)" style="dominant-baseline: middle; font-size: 10.2px;" y="0" x="0" id="text-entity-Details-45cac3b0-6e22-5f3e-a583-b50b72bdfd6b-attr-4-name" class="er entityLabel">price</text><rect height="22" width="266.0699768066406" y="90" x="111.65426635742188" class="er attributeBoxEven"></rect><text transform="translate(116.65426635742188,101)" style="dominant-baseline: middle; font-size: 10.2px;" y="0" x="0" id="text-entity-Details-45cac3b0-6e22-5f3e-a583-b50b72bdfd6b-attr-4-comment" class="er entityLabel">Preis der Wohnung (falls vorhanden)</text><rect height="22" width="36.61909484863281" y="112" x="0" class="er attributeBoxOdd"></rect><text transform="translate(5,123)" style="dominant-baseline: middle; font-size: 10.2px;" y="0" x="0" id="text-entity-Details-45cac3b0-6e22-5f3e-a583-b50b72bdfd6b-attr-5-type" class="er entityLabel">float</text><rect height="22" width="75.03517150878906" y="112" x="36.61909484863281" class="er attributeBoxOdd"></rect><text transform="translate(41.61909484863281,123)" style="dominant-baseline: middle; font-size: 10.2px;" y="0" x="0" id="text-entity-Details-45cac3b0-6e22-5f3e-a583-b50b72bdfd6b-attr-5-name" class="er entityLabel">size</text><rect height="22" width="266.0699768066406" y="112" x="111.65426635742188" class="er attributeBoxOdd"></rect><text transform="translate(116.65426635742188,123)" style="dominant-baseline: middle; font-size: 10.2px;" y="0" x="0" id="text-entity-Details-45cac3b0-6e22-5f3e-a583-b50b72bdfd6b-attr-5-comment" class="er entityLabel">Größe der Wohnung in Quadratmetern (falls vorhanden)</text><rect height="22" width="36.61909484863281" y="134" x="0" class="er attributeBoxEven"></rect><text transform="translate(5,145)" style="dominant-baseline: middle; font-size: 10.2px;" y="0" x="0" id="text-entity-Details-45cac3b0-6e22-5f3e-a583-b50b72bdfd6b-attr-6-type" class="er entityLabel">int</text><rect height="22" width="75.03517150878906" y="134" x="36.61909484863281" class="er attributeBoxEven"></rect><text transform="translate(41.61909484863281,145)" style="dominant-baseline: middle; font-size: 10.2px;" y="0" x="0" id="text-entity-Details-45cac3b0-6e22-5f3e-a583-b50b72bdfd6b-attr-6-name" class="er entityLabel">floor</text><rect height="22" width="266.0699768066406" y="134" x="111.65426635742188" class="er attributeBoxEven"></rect><text transform="translate(116.65426635742188,145)" style="dominant-baseline: middle; font-size: 10.2px;" y="0" x="0" id="text-entity-Details-45cac3b0-6e22-5f3e-a583-b50b72bdfd6b-attr-6-comment" class="er entityLabel">Stockwerk (falls vorhanden)</text><rect height="22" width="36.61909484863281" y="156" x="0" class="er attributeBoxOdd"></rect><text transform="translate(5,167)" style="dominant-baseline: middle; font-size: 10.2px;" y="0" x="0" id="text-entity-Details-45cac3b0-6e22-5f3e-a583-b50b72bdfd6b-attr-7-type" class="er entityLabel">string</text><rect height="22" width="75.03517150878906" y="156" x="36.61909484863281" class="er attributeBoxOdd"></rect><text transform="translate(41.61909484863281,167)" style="dominant-baseline: middle; font-size: 10.2px;" y="0" x="0" id="text-entity-Details-45cac3b0-6e22-5f3e-a583-b50b72bdfd6b-attr-7-name" class="er entityLabel">otherDetails</text><rect height="22" width="266.0699768066406" y="156" x="111.65426635742188" class="er attributeBoxOdd"></rect><text transform="translate(116.65426635742188,167)" style="dominant-baseline: middle; font-size: 10.2px;" y="0" x="0" id="text-entity-Details-45cac3b0-6e22-5f3e-a583-b50b72bdfd6b-attr-7-comment" class="er entityLabel">Andere Information über die Wohnung (falls vorhanden)</text></g><g transform="translate(497.7242431640625,554 )" id="entity-HistoricStatus-958f854d-a7cc-5c21-a5e3-a783d7b2a384"><rect height="90" width="131.17474365234375" y="0" x="0" class="er entityBox"></rect><text transform="translate(65.58737182617188,12)" style="dominant-baseline: middle; text-anchor: middle; font-size: 12px;" y="0" x="0" id="text-entity-HistoricStatus-958f854d-a7cc-5c21-a5e3-a783d7b2a384" class="er entityLabel">HistoricStatus</text><rect height="22" width="36.61909484863281" y="24" x="0" class="er attributeBoxOdd"></rect><text transform="translate(5,35)" style="dominant-baseline: middle; font-size: 10.2px;" y="0" x="0" id="text-entity-HistoricStatus-958f854d-a7cc-5c21-a5e3-a783d7b2a384-attr-1-type" class="er entityLabel">string</text><rect height="22" width="38.149169921875" y="24" x="36.61909484863281" class="er attributeBoxOdd"></rect><text transform="translate(41.61909484863281,35)" style="dominant-baseline: middle; font-size: 10.2px;" y="0" x="0" id="text-entity-HistoricStatus-958f854d-a7cc-5c21-a5e3-a783d7b2a384-attr-1-name" class="er entityLabel">status</text><rect height="22" width="56.40647888183594" y="24" x="74.76826477050781" class="er attributeBoxOdd"></rect><text transform="translate(79.76826477050781,35)" style="dominant-baseline: middle; font-size: 10.2px;" y="0" x="0" id="text-entity-HistoricStatus-958f854d-a7cc-5c21-a5e3-a783d7b2a384-attr-1-comment" class="er entityLabel">Status</text><rect height="22" width="36.61909484863281" y="46" x="0" class="er attributeBoxEven"></rect><text transform="translate(5,57)" style="dominant-baseline: middle; font-size: 10.2px;" y="0" x="0" id="text-entity-HistoricStatus-958f854d-a7cc-5c21-a5e3-a783d7b2a384-attr-2-type" class="er entityLabel">date</text><rect height="22" width="38.149169921875" y="46" x="36.61909484863281" class="er attributeBoxEven"></rect><text transform="translate(41.61909484863281,57)" style="dominant-baseline: middle; font-size: 10.2px;" y="0" x="0" id="text-entity-HistoricStatus-958f854d-a7cc-5c21-a5e3-a783d7b2a384-attr-2-name" class="er entityLabel">from</text><rect height="22" width="56.40647888183594" y="46" x="74.76826477050781" class="er attributeBoxEven"></rect><text transform="translate(79.76826477050781,57)" style="dominant-baseline: middle; font-size: 10.2px;" y="0" x="0" id="text-entity-HistoricStatus-958f854d-a7cc-5c21-a5e3-a783d7b2a384-attr-2-comment" class="er entityLabel">from Date</text><rect height="22" width="36.61909484863281" y="68" x="0" class="er attributeBoxOdd"></rect><text transform="translate(5,79)" style="dominant-baseline: middle; font-size: 10.2px;" y="0" x="0" id="text-entity-HistoricStatus-958f854d-a7cc-5c21-a5e3-a783d7b2a384-attr-3-type" class="er entityLabel">date</text><rect height="22" width="38.149169921875" y="68" x="36.61909484863281" class="er attributeBoxOdd"></rect><text transform="translate(41.61909484863281,79)" style="dominant-baseline: middle; font-size: 10.2px;" y="0" x="0" id="text-entity-HistoricStatus-958f854d-a7cc-5c21-a5e3-a783d7b2a384-attr-3-name" class="er entityLabel">to</text><rect height="22" width="56.40647888183594" y="68" x="74.76826477050781" class="er attributeBoxOdd"></rect><text transform="translate(79.76826477050781,79)" style="dominant-baseline: middle; font-size: 10.2px;" y="0" x="0" id="text-entity-HistoricStatus-958f854d-a7cc-5c21-a5e3-a783d7b2a384-attr-3-comment" class="er entityLabel">to Date</text></g><g transform="translate(1030.9570808410645,20 )" id="entity-Users-8b6eb67b-f64b-5426-9c24-135a96b8b656"><rect height="134" width="407.69761657714844" y="0" x="0" class="er entityBox"></rect><text transform="translate(203.84880828857422,12)" style="dominant-baseline: middle; text-anchor: middle; font-size: 12px;" y="0" x="0" id="text-entity-Users-8b6eb67b-f64b-5426-9c24-135a96b8b656" class="er entityLabel">Users</text><rect height="22" width="36.61909484863281" y="24" x="0" class="er attributeBoxOdd"></rect><text transform="translate(5,35)" style="dominant-baseline: middle; font-size: 10.2px;" y="0" x="0" id="text-entity-Users-8b6eb67b-f64b-5426-9c24-135a96b8b656-attr-1-type" class="er entityLabel">string</text><rect height="22" width="62.28948974609375" y="24" x="36.61909484863281" class="er attributeBoxOdd"></rect><text transform="translate(41.61909484863281,35)" style="dominant-baseline: middle; font-size: 10.2px;" y="0" x="0" id="text-entity-Users-8b6eb67b-f64b-5426-9c24-135a96b8b656-attr-1-name" class="er entityLabel">_id</text><rect height="22" width="22.68768310546875" y="24" x="98.90858459472656" class="er attributeBoxOdd"></rect><text transform="translate(103.90858459472656,35)" style="dominant-baseline: middle; font-size: 10.2px;" y="0" x="0" id="text-entity-Users-8b6eb67b-f64b-5426-9c24-135a96b8b656-attr-1-key" class="er entityLabel">PK</text><rect height="22" width="286.1013488769531" y="24" x="121.59626770019531" class="er attributeBoxOdd"></rect><text transform="translate(126.59626770019531,35)" style="dominant-baseline: middle; font-size: 10.2px;" y="0" x="0" id="text-entity-Users-8b6eb67b-f64b-5426-9c24-135a96b8b656-attr-1-comment" class="er entityLabel">MongoDB ObjectId</text><rect height="22" width="36.61909484863281" y="46" x="0" class="er attributeBoxEven"></rect><text transform="translate(5,57)" style="dominant-baseline: middle; font-size: 10.2px;" y="0" x="0" id="text-entity-Users-8b6eb67b-f64b-5426-9c24-135a96b8b656-attr-2-type" class="er entityLabel">string</text><rect height="22" width="62.28948974609375" y="46" x="36.61909484863281" class="er attributeBoxEven"></rect><text transform="translate(41.61909484863281,57)" style="dominant-baseline: middle; font-size: 10.2px;" y="0" x="0" id="text-entity-Users-8b6eb67b-f64b-5426-9c24-135a96b8b656-attr-2-name" class="er entityLabel">username</text><rect height="22" width="22.68768310546875" y="46" x="98.90858459472656" class="er attributeBoxEven"></rect><text transform="translate(103.90858459472656,57)" style="dominant-baseline: middle; font-size: 10.2px;" y="0" x="0" id="text-entity-Users-8b6eb67b-f64b-5426-9c24-135a96b8b656-attr-2-key" class="er entityLabel"></text><rect height="22" width="286.1013488769531" y="46" x="121.59626770019531" class="er attributeBoxEven"></rect><text transform="translate(126.59626770019531,57)" style="dominant-baseline: middle; font-size: 10.2px;" y="0" x="0" id="text-entity-Users-8b6eb67b-f64b-5426-9c24-135a96b8b656-attr-2-comment" class="er entityLabel">Benutzername</text><rect height="22" width="36.61909484863281" y="68" x="0" class="er attributeBoxOdd"></rect><text transform="translate(5,79)" style="dominant-baseline: middle; font-size: 10.2px;" y="0" x="0" id="text-entity-Users-8b6eb67b-f64b-5426-9c24-135a96b8b656-attr-3-type" class="er entityLabel">string</text><rect height="22" width="62.28948974609375" y="68" x="36.61909484863281" class="er attributeBoxOdd"></rect><text transform="translate(41.61909484863281,79)" style="dominant-baseline: middle; font-size: 10.2px;" y="0" x="0" id="text-entity-Users-8b6eb67b-f64b-5426-9c24-135a96b8b656-attr-3-name" class="er entityLabel">password</text><rect height="22" width="22.68768310546875" y="68" x="98.90858459472656" class="er attributeBoxOdd"></rect><text transform="translate(103.90858459472656,79)" style="dominant-baseline: middle; font-size: 10.2px;" y="0" x="0" id="text-entity-Users-8b6eb67b-f64b-5426-9c24-135a96b8b656-attr-3-key" class="er entityLabel"></text><rect height="22" width="286.1013488769531" y="68" x="121.59626770019531" class="er attributeBoxOdd"></rect><text transform="translate(126.59626770019531,79)" style="dominant-baseline: middle; font-size: 10.2px;" y="0" x="0" id="text-entity-Users-8b6eb67b-f64b-5426-9c24-135a96b8b656-attr-3-comment" class="er entityLabel">Passworthash</text><rect height="22" width="36.61909484863281" y="90" x="0" class="er attributeBoxEven"></rect><text transform="translate(5,101)" style="dominant-baseline: middle; font-size: 10.2px;" y="0" x="0" id="text-entity-Users-8b6eb67b-f64b-5426-9c24-135a96b8b656-attr-4-type" class="er entityLabel">string</text><rect height="22" width="62.28948974609375" y="90" x="36.61909484863281" class="er attributeBoxEven"></rect><text transform="translate(41.61909484863281,101)" style="dominant-baseline: middle; font-size: 10.2px;" y="0" x="0" id="text-entity-Users-8b6eb67b-f64b-5426-9c24-135a96b8b656-attr-4-name" class="er entityLabel">email</text><rect height="22" width="22.68768310546875" y="90" x="98.90858459472656" class="er attributeBoxEven"></rect><text transform="translate(103.90858459472656,101)" style="dominant-baseline: middle; font-size: 10.2px;" y="0" x="0" id="text-entity-Users-8b6eb67b-f64b-5426-9c24-135a96b8b656-attr-4-key" class="er entityLabel"></text><rect height="22" width="286.1013488769531" y="90" x="121.59626770019531" class="er attributeBoxEven"></rect><text transform="translate(126.59626770019531,101)" style="dominant-baseline: middle; font-size: 10.2px;" y="0" x="0" id="text-entity-Users-8b6eb67b-f64b-5426-9c24-135a96b8b656-attr-4-comment" class="er entityLabel">E-Mail-Adresse des Benutzers</text><rect height="22" width="36.61909484863281" y="112" x="0" class="er attributeBoxOdd"></rect><text transform="translate(5,123)" style="dominant-baseline: middle; font-size: 10.2px;" y="0" x="0" id="text-entity-Users-8b6eb67b-f64b-5426-9c24-135a96b8b656-attr-5-type" class="er entityLabel">date</text><rect height="22" width="62.28948974609375" y="112" x="36.61909484863281" class="er attributeBoxOdd"></rect><text transform="translate(41.61909484863281,123)" style="dominant-baseline: middle; font-size: 10.2px;" y="0" x="0" id="text-entity-Users-8b6eb67b-f64b-5426-9c24-135a96b8b656-attr-5-name" class="er entityLabel">signedUpAt</text><rect height="22" width="22.68768310546875" y="112" x="98.90858459472656" class="er attributeBoxOdd"></rect><text transform="translate(103.90858459472656,123)" style="dominant-baseline: middle; font-size: 10.2px;" y="0" x="0" id="text-entity-Users-8b6eb67b-f64b-5426-9c24-135a96b8b656-attr-5-key" class="er entityLabel"></text><rect height="22" width="286.1013488769531" y="112" x="121.59626770019531" class="er attributeBoxOdd"></rect><text transform="translate(126.59626770019531,123)" style="dominant-baseline: middle; font-size: 10.2px;" y="0" x="0" id="text-entity-Users-8b6eb67b-f64b-5426-9c24-135a96b8b656-attr-5-comment" class="er entityLabel">Datum und Uhrzeit, wann der Benutzer sich angemeldet hat</text></g><g transform="translate(1127.0885581970215,276 )" id="entity-Preferences-9ca08d08-3f23-546d-9be2-3c1875f6b6c9"><rect height="112" width="215.4346466064453" y="0" x="0" class="er entityBox"></rect><text transform="translate(107.71732330322266,12)" style="dominant-baseline: middle; text-anchor: middle; font-size: 12px;" y="0" x="0" id="text-entity-Preferences-9ca08d08-3f23-546d-9be2-3c1875f6b6c9" class="er entityLabel">Preferences</text><rect height="22" width="32.61090087890625" y="24" x="0" class="er attributeBoxOdd"></rect><text transform="translate(5,35)" style="dominant-baseline: middle; font-size: 10.2px;" y="0" x="0" id="text-entity-Preferences-9ca08d08-3f23-546d-9be2-3c1875f6b6c9-attr-1-type" class="er entityLabel">float</text><rect height="22" width="86.10499572753906" y="24" x="32.61090087890625" class="er attributeBoxOdd"></rect><text transform="translate(37.61090087890625,35)" style="dominant-baseline: middle; font-size: 10.2px;" y="0" x="0" id="text-entity-Preferences-9ca08d08-3f23-546d-9be2-3c1875f6b6c9-attr-1-name" class="er entityLabel">priceRange_min</text><rect height="22" width="96.71875" y="24" x="118.71589660644531" class="er attributeBoxOdd"></rect><text transform="translate(123.71589660644531,35)" style="dominant-baseline: middle; font-size: 10.2px;" y="0" x="0" id="text-entity-Preferences-9ca08d08-3f23-546d-9be2-3c1875f6b6c9-attr-1-comment" class="er entityLabel">min Preisbereich</text><rect height="22" width="32.61090087890625" y="46" x="0" class="er attributeBoxEven"></rect><text transform="translate(5,57)" style="dominant-baseline: middle; font-size: 10.2px;" y="0" x="0" id="text-entity-Preferences-9ca08d08-3f23-546d-9be2-3c1875f6b6c9-attr-2-type" class="er entityLabel">float</text><rect height="22" width="86.10499572753906" y="46" x="32.61090087890625" class="er attributeBoxEven"></rect><text transform="translate(37.61090087890625,57)" style="dominant-baseline: middle; font-size: 10.2px;" y="0" x="0" id="text-entity-Preferences-9ca08d08-3f23-546d-9be2-3c1875f6b6c9-attr-2-name" class="er entityLabel">priceRange_max</text><rect height="22" width="96.71875" y="46" x="118.71589660644531" class="er attributeBoxEven"></rect><text transform="translate(123.71589660644531,57)" style="dominant-baseline: middle; font-size: 10.2px;" y="0" x="0" id="text-entity-Preferences-9ca08d08-3f23-546d-9be2-3c1875f6b6c9-attr-2-comment" class="er entityLabel">max Preisbereich</text><rect height="22" width="32.61090087890625" y="68" x="0" class="er attributeBoxOdd"></rect><text transform="translate(5,79)" style="dominant-baseline: middle; font-size: 10.2px;" y="0" x="0" id="text-entity-Preferences-9ca08d08-3f23-546d-9be2-3c1875f6b6c9-attr-3-type" class="er entityLabel">int</text><rect height="22" width="86.10499572753906" y="68" x="32.61090087890625" class="er attributeBoxOdd"></rect><text transform="translate(37.61090087890625,79)" style="dominant-baseline: middle; font-size: 10.2px;" y="0" x="0" id="text-entity-Preferences-9ca08d08-3f23-546d-9be2-3c1875f6b6c9-attr-3-name" class="er entityLabel">roomRange_min</text><rect height="22" width="96.71875" y="68" x="118.71589660644531" class="er attributeBoxOdd"></rect><text transform="translate(123.71589660644531,79)" style="dominant-baseline: middle; font-size: 10.2px;" y="0" x="0" id="text-entity-Preferences-9ca08d08-3f23-546d-9be2-3c1875f6b6c9-attr-3-comment" class="er entityLabel">min Zimmeranzahl</text><rect height="22" width="32.61090087890625" y="90" x="0" class="er attributeBoxEven"></rect><text transform="translate(5,101)" style="dominant-baseline: middle; font-size: 10.2px;" y="0" x="0" id="text-entity-Preferences-9ca08d08-3f23-546d-9be2-3c1875f6b6c9-attr-4-type" class="er entityLabel">int</text><rect height="22" width="86.10499572753906" y="90" x="32.61090087890625" class="er attributeBoxEven"></rect><text transform="translate(37.61090087890625,101)" style="dominant-baseline: middle; font-size: 10.2px;" y="0" x="0" id="text-entity-Preferences-9ca08d08-3f23-546d-9be2-3c1875f6b6c9-attr-4-name" class="er entityLabel">roomRange_max</text><rect height="22" width="96.71875" y="90" x="118.71589660644531" class="er attributeBoxEven"></rect><text transform="translate(123.71589660644531,101)" style="dominant-baseline: middle; font-size: 10.2px;" y="0" x="0" id="text-entity-Preferences-9ca08d08-3f23-546d-9be2-3c1875f6b6c9-attr-4-comment" class="er entityLabel">max Zimmeranzahl</text></g><rect height="14" width="57.44140625" y="184.6941680908203" x="385.7827453613281" class="er relationshipLabelBox"></rect><text style="text-anchor: middle; dominant-baseline: middle; font-size: 12px;" y="191.6941680908203" x="414.5034484863281" id="rel11" class="er relationshipLabel">references</text><rect height="14" width="44.978515625" y="197.00820922851562" x="764.3479614257812" class="er relationshipLabelBox"></rect><text style="text-anchor: middle; dominant-baseline: middle; font-size: 12px;" y="204.00820922851562" x="786.8372192382812" id="rel12" class="er relationshipLabel">contains</text><rect height="14" width="44.978515625" y="443.5499572753906" x="205.58560180664062" class="er relationshipLabelBox"></rect><text style="text-anchor: middle; dominant-baseline: middle; font-size: 12px;" y="450.5499572753906" x="228.07485961914062" id="rel13" class="er relationshipLabel">contains</text><rect height="14" width="51.15625" y="463.0292663574219" x="527.4307250976562" class="er relationshipLabelBox"></rect><text style="text-anchor: middle; dominant-baseline: middle; font-size: 12px;" y="470.0292663574219" x="553.0088500976562" id="rel14" class="er relationshipLabel">has many</text><rect height="14" width="17.861328125" y="208" x="1225.8753662109375" class="er relationshipLabelBox"></rect><text style="text-anchor: middle; dominant-baseline: middle; font-size: 12px;" y="215" x="1234.8060302734375" id="rel15" class="er relationshipLabel">has</text></svg>